<svg width="24" height="24" viewBox="0 0 24 24" fill="none" xmlns="http://www.w3.org/2000/svg">
<path d="M19.7083 7.29196C19.8014 7.38485 19.8753 7.4952 19.9257 7.61669C19.9761 7.73818 20.0021 7.86842 20.0021 7.99996C20.0021 8.13149 19.9761 8.26173 19.9257 8.38322C19.8753 8.50471 19.8014 8.61507 19.7083 8.70796L10.7083 17.708C10.6154 17.8011 10.505 17.875 10.3836 17.9254C10.2621 17.9758 10.1318 18.0017 10.0003 18.0017C9.86875 18.0017 9.73851 17.9758 9.61702 17.9254C9.49553 17.875 9.38518 17.8011 9.29229 17.708L5.29229 13.708C5.10451 13.5202 4.99902 13.2655 4.99902 13C4.99902 12.7344 5.10451 12.4797 5.29229 12.292C5.48006 12.1042 5.73474 11.9987 6.00029 11.9987C6.26584 11.9987 6.52051 12.1042 6.70829 12.292L10.0003 15.586L18.2923 7.29196C18.3852 7.19883 18.4955 7.12494 18.617 7.07453C18.7385 7.02412 18.8688 6.99817 19.0003 6.99817C19.1318 6.99817 19.2621 7.02412 19.3836 7.07453C19.505 7.12494 19.6154 7.19883 19.7083 7.29196Z" fill="white"/>
</svg>
